<?xml version="1.0" encoding="iso-8859-1"?>
<!-- Uploaded to: SVG Repo, www.svgrepo.com, Generator: SVG Repo Mixer Tools -->
<svg fill="#000000" height="800px" width="800px" version="1.1" id="Layer_1" xmlns="http://www.w3.org/2000/svg" xmlns:xlink="http://www.w3.org/1999/xlink" 
	 viewBox="0 0 512 512" xml:space="preserve">
<g>
	<g>
		<g>
			<path d="M480.816,249.352c-3.532-18.794-12.69-36.058-26.615-49.687c-17.669-17.294-41.019-26.818-65.747-26.818
				c-5.515,0-10.955,0.5-16.285,1.428c2.148-35.051-23.7-67.394-26.781-71.111l-7.249-8.746l-10.568,4.167
				c-30.541,12.044-50.172,29.22-58.348,51.05c-0.31,0.829-0.6,1.653-0.869,2.473c-25.737-20.413-57.393-31.507-90.698-31.507
				c-38.71,0-75.2,14.974-102.748,42.166c-23.814,23.506-38.584,53.811-42.481,86.584H0v15.673
				C0,325.522,49.218,374.74,109.714,374.74h292.571C462.782,374.74,512,325.522,512,265.026v-15.673H480.816z M346.445,220.567
				c1.707-1.286,3.331-2.625,4.878-4.008c10.44-7.753,23.307-12.364,37.129-12.364c28.207-0.001,52.469,19.168,60.144,45.157
				h-26.135c-6.353-12.423-19.3-20.898-34.008-20.898c-14.708,0-27.654,8.475-34.008,20.898H328.31
				C331.615,238.163,338,228.243,346.445,220.567z M298.731,160.231c4.063-10.43,14.064-19.813,29.191-27.496
				c6.382,10.214,14.765,26.967,12.745,42.034c-0.855,6.376-3.645,11.912-8.466,16.777c-3.311,2.483-6.491,5.18-9.495,8.119
				c-3.604,3.528-6.871,7.309-9.824,11.286c-3.733-9.03-8.377-17.68-13.89-25.829C297.789,182.208,294.215,171.828,298.731,160.231z
				 M177.656,151.949c57.098,0,105.062,42.427,113.584,97.403h-24.17c-3.488-18.029-12.324-34.584-25.699-47.677
				c-17.123-16.759-39.75-25.989-63.714-25.989s-46.591,9.23-63.714,25.989c-13.377,13.093-22.212,29.648-25.699,47.677H64.073
				C72.594,194.376,120.558,151.949,177.656,151.949z M234.782,249.352h-23.118c-6.353-12.423-19.3-20.898-34.008-20.898
				c-14.708,0-27.654,8.475-34.008,20.898h-23.118c7.559-24.406,30.498-42.318,57.127-42.318S227.223,224.947,234.782,249.352z
				 M402.286,343.393H109.714c-37.845,0-69.511-26.968-76.793-62.694h53.277H138.4h78.514h52.201h24.975h30.05h25.059h78.514h51.368
				C471.797,316.425,440.131,343.393,402.286,343.393z"/>
			<polygon points="99.265,416.536 412.212,416.536 412.212,417.581 413.257,417.581 413.257,416.536 423.184,416.536 
				423.184,385.189 99.265,385.189 			"/>
		</g>
	</g>
</g>
</svg>